<svg xmlns="http://www.w3.org/2000/svg">
  <symbol viewBox="0 0 59 40" id="glasses">
    <path fill-rule="evenodd" clip-rule="evenodd" d="M53.8917 6.58616L58.9302 27.7312C59.0013 27.9491 59.0184 28.1815 58.98 28.4078C58.9417 28.6341 58.849 28.8472 58.7102 29.0284C58.5715 29.2096 58.3909 29.3532 58.1845 29.4465C57.978 29.5398 57.7522 29.58 57.5268 29.5635H53.5201C52.8298 35.3747 47.9494 39.8784 42.0315 39.8784C36.1136 39.8784 31.2332 35.3747 30.543 29.5635H28.5778C27.8869 35.442 22.9527 40 16.9685 40C10.9742 40 6.0335 35.4266 5.35571 29.5337H1.45014C1.22961 29.5445 1.00974 29.5014 0.808914 29.4082C0.608085 29.315 0.432119 29.1743 0.295711 28.9979C0.159304 28.8214 0.0664152 28.6144 0.0248022 28.3941C-0.0168108 28.1737 -0.00593994 27.9464 0.0565069 27.7312L5.10477 6.58616C5.45562 4.25872 7.63865 0 13.4861 0C13.8738 0 14.2456 0.156518 14.5197 0.435122C14.7939 0.713727 14.9479 1.0916 14.9479 1.4856C14.9479 1.87961 14.7939 2.25748 14.5197 2.53608C14.2456 2.81468 13.8738 2.9712 13.4861 2.9712C8.7789 2.9712 8.04797 6.6654 7.9895 7.07146L3.3408 26.6022H5.37467C6.12089 20.7847 11.0272 16.2918 16.9685 16.2918C22.9066 16.2918 27.8107 20.7798 28.5611 26.5926L30.5587 26.6017C31.3043 20.8518 36.1567 16.4134 42.0315 16.4134C47.9178 16.4134 52.7776 20.8691 53.5086 26.6353V26.5824H55.6459L51.007 7.07146C50.9387 6.6654 50.237 2.9712 45.5104 2.9712C45.1227 2.9712 44.7509 2.81468 44.4767 2.53608C44.2026 2.25748 44.0485 1.87961 44.0485 1.4856C44.0485 1.0916 44.2026 0.713727 44.4767 0.435122C44.7509 0.156518 45.1227 0 45.5104 0C51.3578 0 53.5408 4.25872 53.8917 6.58616ZM25.6722 29.5635C25.7448 29.1018 25.7825 28.6283 25.7825 28.1459C25.7825 27.6164 25.7371 27.0977 25.65 26.5935C24.9252 22.3982 21.3141 19.2097 16.9685 19.2097C12.6203 19.2097 9.00753 22.402 8.28571 26.601C8.19945 27.1028 8.15447 27.619 8.15447 28.1459C8.15447 28.6205 8.19096 29.0864 8.26125 29.541C8.92191 33.8136 12.5687 37.0821 16.9685 37.0821C21.3605 37.0821 25.0023 33.8251 25.6722 29.5635ZM50.6138 29.5635C50.6874 29.102 50.7256 28.6285 50.7256 28.1459C50.7256 23.2777 46.8331 19.3313 42.0315 19.3313C37.2299 19.3313 33.3374 23.2777 33.3374 28.1459C33.3374 28.6285 33.3756 29.102 33.4492 29.5635C34.118 33.7577 37.7058 36.9605 42.0315 36.9605C46.3572 36.9605 49.945 33.7577 50.6138 29.5635Z"/>
  </symbol>
  <symbol viewBox="0 0 74 23" id="logo">
    <path d="M0.00496827 1.54857C0.00487772 1.21254 0.135804 0.889818 0.369742 0.649431C0.60368 0.409043 0.922049 0.27008 1.25676 0.262266H8.39001C13.4469 0.262266 16.7751 2.9645 16.7751 7.39179V7.45162C16.7751 12.2977 12.7415 14.8105 7.97274 14.8105H2.53836V21.611C2.55394 21.7874 2.53277 21.9651 2.47619 22.1329C2.41961 22.3006 2.32887 22.4547 2.20973 22.5854C2.09058 22.716 1.94565 22.8204 1.78416 22.8918C1.62266 22.9631 1.44812 23 1.27166 23C1.0952 23 0.920671 22.9631 0.759173 22.8918C0.597674 22.8204 0.452744 22.716 0.333602 22.5854C0.21446 22.4547 0.123708 22.3006 0.0671295 22.1329C0.0105515 21.9651 -0.0106138 21.7874 0.00496827 21.611V1.54857ZM8.07209 12.5171C11.7778 12.5171 14.2119 10.5228 14.2119 7.53139V7.47156C14.2119 4.26078 11.8175 2.59556 8.25092 2.59556H2.58804V12.4772L8.07209 12.5171Z" />
    <path d="M21.5935 1.38904C21.5779 1.21262 21.5991 1.03487 21.6556 0.867114C21.7122 0.699353 21.803 0.545245 21.9221 0.414596C22.0412 0.283947 22.1862 0.179616 22.3477 0.108238C22.5092 0.0368607 22.6837 0 22.8602 0C23.0366 0 23.2112 0.0368607 23.3727 0.108238C23.5342 0.179616 23.6791 0.283947 23.7982 0.414596C23.9174 0.545245 24.0081 0.699353 24.0647 0.867114C24.1213 1.03487 24.1425 1.21262 24.1269 1.38904V21.611C24.1425 21.7874 24.1213 21.9651 24.0647 22.1329C24.0081 22.3006 23.9174 22.4548 23.7982 22.5854C23.6791 22.7161 23.5342 22.8204 23.3727 22.8918C23.2112 22.9631 23.0366 23 22.8602 23C22.6837 23 22.5092 22.9631 22.3477 22.8918C22.1862 22.8204 22.0412 22.7161 21.9221 22.5854C21.803 22.4548 21.7122 22.3006 21.6556 22.1329C21.5991 21.9651 21.5779 21.7874 21.5935 21.611V1.38904Z" />
    <path d="M30.674 1.41895C30.6816 1.08908 30.8163 0.775007 31.0497 0.542621C31.2831 0.310235 31.597 0.177597 31.9258 0.172531H32.2735C32.5316 0.177833 32.7843 0.248188 33.0082 0.377127C33.2322 0.506065 33.4202 0.689448 33.5551 0.910412L47.1559 18.3104V1.35912C47.1559 1.0312 47.2857 0.7167 47.5168 0.484821C47.7478 0.252942 48.0611 0.122673 48.3879 0.122673C48.7146 0.122673 49.0279 0.252942 49.259 0.484821C49.49 0.7167 49.6198 1.0312 49.6198 1.35912V21.6508C49.6252 21.8051 49.5993 21.9589 49.5435 22.1028C49.4878 22.2467 49.4034 22.3777 49.2956 22.4878C49.1877 22.5979 49.0587 22.6848 48.9163 22.7432C48.7739 22.8016 48.6211 22.8303 48.4673 22.8275H48.3382C48.0744 22.8092 47.8184 22.7294 47.5908 22.5944C47.3631 22.4593 47.17 22.2728 47.0268 22.0497L33.1179 4.24085V21.6508C33.1158 21.9722 32.991 22.2805 32.7692 22.5124C32.5474 22.7442 32.2456 22.882 31.9258 22.8973C31.6008 22.892 31.291 22.7581 31.064 22.5246C30.8369 22.2911 30.711 21.9771 30.7137 21.6508V1.41895H30.674Z" />
    <path d="M55.9384 1.38904C55.9228 1.21262 55.944 1.03487 56.0005 0.867114C56.0571 0.699353 56.1479 0.545245 56.267 0.414596C56.3862 0.283947 56.5311 0.179616 56.6926 0.108238C56.8541 0.0368607 57.0286 0 57.2051 0C57.3815 0 57.5561 0.0368607 57.7176 0.108238C57.8791 0.179616 58.024 0.283947 58.1431 0.414596C58.2623 0.545245 58.353 0.699353 58.4096 0.867114C58.4662 1.03487 58.4874 1.21262 58.4718 1.38904V13.6837L71.2282 0.551443C71.4899 0.279712 71.8455 0.119105 72.2216 0.10273C72.5468 0.115453 72.8548 0.252812 73.0821 0.486531C73.3094 0.72025 73.4388 1.03254 73.4436 1.35912C73.4366 1.52896 73.3961 1.69572 73.3245 1.84975C73.2529 2.00379 73.1516 2.14205 73.0264 2.25655L65.0785 10.1539L73.6523 20.6836C73.8764 20.9441 73.9998 21.2768 74 21.6209C73.9961 21.7933 73.9583 21.9633 73.8887 22.121C73.8191 22.2786 73.719 22.4209 73.5943 22.5395C73.4696 22.6582 73.3228 22.7509 73.1622 22.8123C73.0016 22.8737 72.8305 22.9026 72.6588 22.8973C72.4588 22.8891 72.2639 22.8322 72.0908 22.7314C71.9177 22.6306 71.7716 22.4891 71.6653 22.3189L63.3001 11.859L58.4718 16.7051V21.591C58.4718 21.7573 58.4391 21.922 58.3757 22.0756C58.3123 22.2293 58.2194 22.3689 58.1022 22.4865C57.9851 22.6041 57.846 22.6973 57.6929 22.761C57.5398 22.8246 57.3757 22.8574 57.21 22.8574C57.0443 22.8574 56.8803 22.8246 56.7272 22.761C56.5741 22.6973 56.435 22.6041 56.3179 22.4865C56.2007 22.3689 56.1078 22.2293 56.0443 22.0756C55.9809 21.922 55.9483 21.7573 55.9483 21.591V1.38904H55.9384Z"/>
  </symbol>
  <symbol viewBox="0 0 22 41" id="arrow-back">
    <path opacity="0.3" d="M2.0413 20.5035L21.7483 1.4144C21.8281 1.3379 21.8914 1.24683 21.9346 1.14646C21.9778 1.04608 22 0.938398 22 0.829635C22 0.720871 21.9778 0.613187 21.9346 0.512814C21.8914 0.41244 21.8281 0.321369 21.7483 0.24487C21.6686 0.167255 21.5738 0.105671 21.4694 0.0636507C21.365 0.0216304 21.2532 0 21.1401 0C21.0271 0 20.9153 0.0216304 20.8109 0.0636507C20.7065 0.105671 20.6117 0.167255 20.532 0.24487L0.252535 19.9088C0.17249 19.9862 0.108978 20.0781 0.0656429 20.1793C0.0223074 20.2805 0 20.389 0 20.4985C0 20.6081 0.0223074 20.7166 0.0656429 20.8178C0.108978 20.919 0.17249 21.0109 0.252535 21.0883L20.532 40.7621C20.6967 40.9157 20.9167 41.001 21.1453 41C21.3139 40.9985 21.4783 40.9488 21.6181 40.8572C21.7578 40.7656 21.8666 40.6362 21.9309 40.485C21.9952 40.3339 22.0122 40.1677 21.9797 40.0072C21.9473 39.8467 21.8668 39.6991 21.7483 39.5827L2.0413 20.5035Z"/>
  </symbol>
  <symbol viewBox="0 0 22 41" id="arrow-forward">
    <path opacity="0.3" d="M19.9587 20.4965L0.251671 39.5856C0.171938 39.6621 0.108643 39.7532 0.065443 39.8535C0.0222435 39.9539 0 40.0616 0 40.1704C0 40.2791 0.0222435 40.3868 0.065443 40.4872C0.108643 40.5876 0.171938 40.6786 0.251671 40.7551C0.33144 40.8327 0.426224 40.8943 0.530588 40.9363C0.634953 40.9784 0.746847 41 0.859852 41C0.972857 41 1.08475 40.9784 1.18911 40.9363C1.29348 40.8943 1.38826 40.8327 1.46803 40.7551L21.7475 21.0912C21.8275 21.0138 21.891 20.9219 21.9344 20.8207C21.9777 20.7195 22 20.611 22 20.5015C22 20.3919 21.9777 20.2834 21.9344 20.1822C21.891 20.081 21.8275 19.9891 21.7475 19.9117L1.46803 0.237877C1.30326 0.0842934 1.08329 -0.00102615 0.85474 7.62939e-06C0.6861 0.00154114 0.52166 0.0511971 0.381939 0.14278C0.24222 0.234364 0.133411 0.363811 0.069088 0.51498C0.00476646 0.666149 -0.0122204 0.83234 0.0202503 0.992809C0.052721 1.15328 0.133209 1.30093 0.251671 1.41732L19.9587 20.4965Z"/>
  </symbol>
  <symbol viewBox="0 0 31 21" id="icon-yes">
    <path d="M30.5559 0.429509C30.4134 0.293412 30.2439 0.185389 30.0571 0.111671C29.8703 0.0379536 29.67 0 29.4676 0C29.2653 0 29.065 0.0379536 28.8782 0.111671C28.6914 0.185389 28.5219 0.293412 28.3794 0.429509L10.3744 17.4958L2.5777 10.1097C2.28714 9.85325 1.90283 9.71362 1.50573 9.72025C1.10864 9.72689 0.72977 9.87928 0.448939 10.1453C0.168108 10.4114 0.00724504 10.7703 0.0002388 11.1464C-0.00676744 11.5226 0.140631 11.8867 0.41138 12.1619L9.29124 20.5741C9.4331 20.7094 9.60187 20.8167 9.7878 20.8898C9.97372 20.9629 10.1731 21.0004 10.3744 21C10.7806 20.9986 11.1698 20.8456 11.4576 20.5741L30.5559 2.48172C30.8405 2.20822 31 1.83963 31 1.45561C31 1.0716 30.8405 0.703003 30.5559 0.429509Z"/>
  </symbol>
  <symbol viewBox="0 0 27 27" id="icon-no">
    <path d="M15.6444 13.5065L26.5531 2.58654C26.6947 2.44667 26.8071 2.28009 26.8838 2.09645C26.9605 1.91281 27 1.71577 27 1.51674C27 1.31772 26.9605 1.12068 26.8838 0.937041C26.8071 0.753403 26.6947 0.58682 26.5531 0.446952C26.268 0.165899 25.8837 0.00834432 25.4834 0.00834432C25.0831 0.00834432 24.6988 0.165899 24.4137 0.446952L13.505 11.3669L2.58626 0.446952C2.44641 0.305366 2.27984 0.192953 2.09622 0.11623C1.9126 0.0395068 1.71558 0 1.51658 0C1.31758 0 1.12056 0.0395068 0.936941 0.11623C0.753322 0.192953 0.586757 0.305366 0.446904 0.446952C0.165881 0.73209 0.00834343 1.11638 0.00834343 1.51674C0.00834343 1.91711 0.165881 2.3014 0.446904 2.58654L11.3657 13.5065L0.446904 24.4164C0.305333 24.5562 0.192932 24.7228 0.116217 24.9064C0.0395025 25.0901 0 25.2871 0 25.4861C0 25.6852 0.0395025 25.8822 0.116217 26.0658C0.192932 26.2495 0.305333 26.4161 0.446904 26.5559C0.730723 26.8394 1.11545 26.9987 1.51658 26.9987C1.91771 26.9987 2.30244 26.8394 2.58626 26.5559L13.505 15.6461L24.4137 26.5559C24.698 26.839 25.0823 26.9985 25.4834 27C25.7826 26.9997 26.075 26.9108 26.3237 26.7444C26.5724 26.5781 26.7662 26.3417 26.8806 26.0653C26.9951 25.7888 27.0251 25.4847 26.9668 25.1912C26.9085 24.8977 26.7645 24.6281 26.5531 24.4164L15.6444 13.5065Z"/>
  </symbol>
  <symbol viewBox="0 0 105 41" id="starsky-hutch">
    <g id="surface1">
      <path d="M 5.578125 6.261719 C 4.671875 6.523438 3.648438 7.132812 2.847656 7.910156 C 1.734375 8.96875 1.640625 9.191406 1.652344 10.765625 C 1.652344 11.875 1.691406 12.152344 1.929688 12.523438 C 2.269531 13.078125 3.558594 14.1875 4.332031 14.59375 L 4.921875 14.914062 L 3.820312 14.925781 L 2.730469 14.925781 L 2.203125 15.453125 L 1.679688 15.984375 L 1.71875 17.605469 C 1.785156 19.484375 1.890625 19.761719 2.808594 20.210938 C 3.386719 20.488281 3.515625 20.5 6.984375 20.445312 C 10.199219 20.394531 10.683594 20.355469 11.679688 20.078125 C 13.886719 19.484375 15.238281 18.585938 15.882812 17.265625 C 16.761719 15.453125 16.5 13.75 15.132812 12.402344 C 14.714844 11.992188 14.28125 11.636719 14.175781 11.597656 C 14.070312 11.558594 14.003906 11.492188 14.042969 11.453125 C 14.148438 11.347656 14.503906 11.332031 15.972656 11.347656 L 17.3125 11.359375 L 17.351562 15.375 L 17.390625 19.402344 L 18.125 20.167969 L 16.761719 20.25 C 14.058594 20.421875 12.363281 20.988281 11.183594 22.152344 C 10.710938 22.601562 10.472656 22.957031 10.367188 23.378906 C 10.199219 24.011719 10.265625 25.308594 10.488281 25.53125 C 10.578125 25.625 10.40625 25.902344 9.960938 26.390625 C 8.925781 27.527344 8.636719 28.132812 8.558594 29.269531 C 8.464844 30.738281 8.664062 31.25 9.777344 32.453125 C 11.445312 34.261719 12.992188 34.804688 16.472656 34.792969 C 17.980469 34.792969 18.636719 34.738281 19.265625 34.554688 C 19.714844 34.410156 20.121094 34.261719 20.148438 34.210938 C 20.1875 34.15625 20.4375 34.183594 20.710938 34.277344 C 21.5 34.554688 23.285156 34.753906 24.046875 34.660156 C 24.609375 34.582031 24.820312 34.476562 25.214844 34.078125 L 25.671875 33.589844 L 26.15625 34.027344 L 26.644531 34.476562 L 31.066406 34.476562 L 31.605469 34.078125 C 31.90625 33.867188 32.207031 33.578125 32.273438 33.429688 C 32.367188 33.273438 32.417969 32.214844 32.417969 30.855469 L 32.417969 28.53125 L 35.136719 28.53125 L 35.203125 30.84375 C 35.265625 33.40625 35.304688 33.550781 36.238281 34.183594 C 36.671875 34.476562 36.761719 34.488281 38.941406 34.449219 L 41.210938 34.410156 L 41.605469 34 C 41.828125 33.773438 42.09375 33.378906 42.171875 33.128906 L 42.339844 32.652344 L 43.035156 33.101562 C 43.679688 33.496094 44.085938 33.65625 45.9375 34.222656 C 46.359375 34.355469 47.316406 34.410156 49.21875 34.410156 C 51.804688 34.410156 51.949219 34.394531 53.089844 34.039062 C 54.625 33.550781 55.675781 32.941406 56.53125 32.070312 C 57.539062 31.039062 57.65625 30.632812 57.738281 27.738281 L 57.816406 25.292969 L 58.640625 25.253906 L 59.457031 25.214844 L 59.457031 28.820312 C 59.457031 30.804688 59.496094 32.640625 59.535156 32.890625 C 59.574219 33.140625 59.8125 33.589844 60.058594 33.878906 L 60.492188 34.410156 L 63.117188 34.449219 C 66.03125 34.5 66.269531 34.449219 66.832031 33.65625 C 67.109375 33.257812 67.132812 33.046875 67.199219 31.238281 L 67.265625 29.257812 L 67.710938 30.089844 C 68.734375 31.976562 70.742188 33.257812 73.984375 34.105469 C 75.089844 34.394531 75.363281 34.410156 80.417969 34.410156 L 85.707031 34.410156 L 86.191406 33.90625 L 86.691406 33.417969 L 86.730469 30.972656 L 86.78125 28.53125 L 89.644531 28.53125 L 89.644531 30.867188 C 89.644531 33.195312 89.644531 33.207031 90 33.722656 C 90.195312 34 90.496094 34.289062 90.667969 34.355469 C 90.839844 34.421875 91.925781 34.476562 93.082031 34.476562 C 95.089844 34.476562 95.222656 34.460938 95.746094 34.144531 C 96.679688 33.601562 96.664062 33.695312 96.664062 27.078125 C 96.664062 21.675781 96.652344 21.160156 96.429688 20.832031 C 96.074219 20.277344 95.472656 20.039062 94.25 19.972656 L 93.148438 19.90625 L 94.121094 19.550781 C 95.261719 19.125 96.324219 18.609375 97.085938 18.082031 C 97.859375 17.542969 100.800781 14.476562 100.800781 14.199219 C 100.800781 14.160156 100.96875 13.871094 101.179688 13.566406 C 101.875 12.523438 102.875 10.632812 103.148438 9.8125 C 103.347656 9.234375 103.425781 8.652344 103.425781 7.871094 C 103.425781 6.789062 103.410156 6.75 103.019531 6.417969 L 102.609375 6.074219 L 96.96875 6.074219 L 96.613281 6.460938 C 96.417969 6.65625 96.035156 7.410156 95.761719 8.109375 C 95.484375 8.808594 95.207031 9.40625 95.15625 9.445312 C 95.039062 9.523438 93.988281 8.109375 93.398438 7.105469 C 92.765625 6.011719 93.265625 6.074219 85.589844 6.074219 L 78.761719 6.074219 L 78.328125 6.445312 C 77.34375 7.304688 76.648438 7.554688 76.648438 7.066406 C 76.648438 6.972656 76.492188 6.710938 76.308594 6.484375 L 75.96875 6.074219 L 73.039062 6.074219 C 71.214844 6.074219 70.074219 6.128906 70.023438 6.207031 C 69.96875 6.300781 69.863281 6.300781 69.695312 6.207031 C 69.300781 5.996094 60.980469 6.035156 60.179688 6.261719 C 59.363281 6.484375 58.394531 7.015625 57.59375 7.6875 L 56.976562 8.203125 L 56.332031 7.726562 C 55.976562 7.476562 55.335938 7.121094 54.914062 6.921875 C 54.496094 6.738281 53.929688 6.484375 53.679688 6.367188 C 53.273438 6.167969 52.527344 6.140625 47.199219 6.140625 L 41.171875 6.140625 L 40.765625 6.644531 L 40.359375 7.160156 L 40.320312 9.8125 L 40.265625 12.46875 L 39.964844 11.941406 C 39.796875 11.664062 39.441406 11.042969 39.164062 10.566406 C 38.402344 9.21875 36.605469 6.605469 36.25 6.328125 C 35.949219 6.101562 35.6875 6.074219 32.878906 6.074219 L 29.820312 6.074219 L 28.507812 7.527344 L 28.351562 7.066406 C 28.269531 6.816406 28.046875 6.484375 27.863281 6.339844 C 27.535156 6.074219 27.367188 6.074219 16.8125 6.089844 C 9.109375 6.101562 5.957031 6.140625 5.578125 6.261719 Z M 14.320312 7.398438 C 14.53125 7.515625 14.570312 7.6875 14.570312 8.585938 C 14.570312 10.050781 14.609375 10.039062 11.589844 10.039062 C 9.292969 10.039062 9.1875 10.050781 8.859375 10.34375 C 8.519531 10.632812 8.519531 10.644531 8.753906 10.910156 C 8.898438 11.082031 9.621094 11.371094 10.632812 11.675781 C 12.703125 12.3125 13.558594 12.71875 14.242188 13.40625 C 14.921875 14.09375 15.160156 14.886719 14.960938 15.8125 C 14.621094 17.289062 13.597656 18.136719 11.339844 18.769531 C 10.433594 19.019531 9.871094 19.058594 7.007812 19.113281 C 4.660156 19.164062 3.621094 19.140625 3.425781 19.019531 C 3.164062 18.886719 3.136719 18.78125 3.175781 17.59375 L 3.214844 16.3125 L 5.710938 16.3125 C 8.214844 16.3125 8.664062 16.261719 9.09375 15.875 C 9.726562 15.308594 9.175781 14.847656 6.957031 14.066406 C 5.984375 13.722656 5.015625 13.355469 4.789062 13.25 C 3.53125 12.601562 2.78125 11.503906 2.941406 10.539062 C 3.214844 8.796875 4.671875 7.742188 7.351562 7.34375 C 8.164062 7.226562 14.082031 7.277344 14.320312 7.398438 Z M 26.957031 7.476562 C 27.117188 7.621094 27.167969 7.953125 27.167969 8.71875 C 27.167969 9.617188 27.128906 9.789062 26.917969 9.90625 C 26.773438 9.972656 25.972656 10.039062 25.148438 10.039062 L 23.625 10.039062 L 23.625 10.527344 C 23.625 10.804688 23.625 12.746094 23.613281 14.859375 C 23.613281 18.1875 23.585938 18.71875 23.402344 18.914062 C 23.21875 19.125 22.941406 19.152344 21.183594 19.152344 C 20.082031 19.152344 19.097656 19.113281 18.980469 19.074219 C 18.796875 19.007812 18.769531 18.492188 18.769531 14.675781 C 18.769531 11.492188 18.730469 10.316406 18.609375 10.195312 C 18.507812 10.089844 17.941406 10.039062 16.957031 10.039062 C 16.144531 10.039062 15.355469 9.972656 15.210938 9.90625 C 15 9.789062 14.960938 9.617188 14.960938 8.71875 C 14.960938 7.953125 15.015625 7.621094 15.171875 7.476562 C 15.355469 7.292969 16.066406 7.265625 21.066406 7.265625 C 26.066406 7.265625 26.773438 7.292969 26.957031 7.476562 Z M 35.632812 7.804688 C 36.277344 8.519531 37.917969 11.054688 38.496094 12.21875 C 39.035156 13.289062 39.898438 15.453125 40.226562 16.511719 C 40.871094 18.625 40.921875 18.863281 40.78125 19.007812 C 40.621094 19.164062 36.515625 19.21875 36.289062 19.046875 C 36.210938 18.996094 36.082031 18.652344 35.988281 18.292969 C 35.898438 17.925781 35.726562 17.554688 35.59375 17.460938 C 35.4375 17.34375 34.6875 17.304688 32.628906 17.328125 L 29.871094 17.371094 L 29.609375 18.226562 L 29.335938 19.085938 L 27.140625 19.125 L 24.949219 19.152344 L 24.859375 18.835938 C 24.765625 18.464844 25.910156 14.925781 26.695312 13.117188 C 27.574219 11.121094 28.640625 9.429688 29.9375 8.003906 L 30.609375 7.265625 L 35.148438 7.265625 Z M 52.683594 7.570312 C 54.574219 8.019531 56.304688 9.179688 56.84375 10.367188 C 57.160156 11.054688 57.160156 12.191406 56.84375 12.878906 C 56.542969 13.539062 55.625 14.410156 54.730469 14.859375 C 54.128906 15.164062 54.0625 15.230469 54.234375 15.402344 C 54.335938 15.507812 54.953125 15.707031 55.597656 15.835938 L 56.765625 16.0625 L 56.765625 19.21875 L 55.714844 19.207031 C 54.902344 19.207031 54.285156 19.085938 52.984375 18.703125 C 51.320312 18.214844 48.785156 17.222656 47.511719 16.578125 C 46.476562 16.046875 46.476562 16.046875 46.4375 17.660156 L 46.398438 19.085938 L 41.804688 19.085938 L 41.722656 18.558594 C 41.671875 18.269531 41.644531 15.691406 41.660156 12.824219 C 41.699219 7.871094 41.710938 7.621094 41.949219 7.4375 C 42.328125 7.144531 51.382812 7.265625 52.683594 7.570312 Z M 75.128906 7.34375 C 75.296875 7.410156 75.335938 7.632812 75.335938 8.402344 C 75.335938 9.152344 75.390625 9.40625 75.535156 9.457031 C 75.746094 9.535156 78.238281 8.269531 79.066406 7.648438 L 79.589844 7.265625 L 82.609375 7.265625 C 84.277344 7.265625 85.734375 7.332031 85.835938 7.398438 C 85.996094 7.503906 85.96875 7.582031 85.652344 7.910156 C 85.117188 8.480469 83.75 9.378906 82.332031 10.089844 C 81.597656 10.460938 81.113281 10.777344 81.113281 10.898438 C 81.113281 11.015625 81.742188 11.796875 82.503906 12.652344 C 84.011719 14.316406 84.550781 15.070312 85.457031 16.710938 C 86.390625 18.414062 86.574219 18.886719 86.347656 19.035156 C 86.125 19.164062 81.636719 19.191406 81.414062 19.046875 C 81.335938 18.996094 80.914062 18.414062 80.484375 17.765625 C 80.0625 17.105469 79.234375 15.984375 78.65625 15.257812 C 76.609375 12.695312 76.347656 12.507812 75.664062 13.101562 L 75.324219 13.40625 L 75.257812 16.167969 C 75.234375 17.6875 75.167969 18.980469 75.128906 19.046875 C 75.089844 19.101562 74.15625 19.152344 73.054688 19.152344 C 71.53125 19.152344 70.992188 19.113281 70.796875 18.96875 C 70.558594 18.78125 70.546875 18.585938 70.574219 13.378906 C 70.585938 10.421875 70.597656 7.886719 70.613281 7.753906 C 70.613281 7.621094 70.742188 7.464844 70.914062 7.398438 C 71.242188 7.265625 74.8125 7.226562 75.128906 7.34375 Z M 91.953125 7.554688 C 92.097656 7.726562 92.453125 8.214844 92.726562 8.652344 C 93.449219 9.722656 94.867188 11.53125 95.105469 11.664062 C 95.511719 11.886719 96.167969 10.871094 96.992188 8.785156 C 97.625 7.199219 97.492188 7.265625 99.816406 7.265625 C 102.242188 7.265625 102.363281 7.316406 102.152344 8.269531 C 101.546875 10.859375 98.882812 14.925781 96.703125 16.578125 C 95.535156 17.460938 94.078125 18.160156 92.464844 18.625 C 90.929688 19.046875 88.660156 19.335938 87.9375 19.179688 L 87.476562 19.074219 L 87.476562 16.457031 L 88.726562 16.300781 C 90.445312 16.074219 92.136719 15.453125 92.136719 15.03125 C 92.136719 14.953125 91.46875 14.226562 90.65625 13.421875 C 89.171875 11.941406 88.410156 10.9375 87.425781 9.113281 C 86.886719 8.109375 86.757812 7.476562 87.058594 7.355469 C 87.136719 7.316406 88.226562 7.277344 89.460938 7.277344 C 91.625 7.265625 91.703125 7.277344 91.953125 7.554688 Z M 69.089844 7.804688 C 69.246094 8.597656 69.183594 9.550781 68.945312 9.800781 C 68.761719 10.011719 68.5 10.039062 66.414062 10.039062 C 64.089844 10.039062 63.355469 10.144531 63.210938 10.515625 C 63.050781 10.9375 63.339844 11.109375 65.203125 11.703125 C 67.410156 12.402344 68.132812 12.734375 68.761719 13.367188 C 69.640625 14.238281 69.8125 15.429688 69.234375 16.601562 C 68.671875 17.738281 67.4375 18.453125 65.324219 18.902344 C 64.339844 19.101562 63.550781 19.152344 61.082031 19.152344 C 58.851562 19.152344 58 19.113281 57.84375 18.980469 C 57.644531 18.847656 57.617188 18.625 57.644531 17.582031 L 57.683594 16.351562 L 60.375 16.324219 C 62.722656 16.3125 63.117188 16.285156 63.433594 16.074219 C 63.890625 15.769531 63.917969 15.152344 63.5 14.875 C 63.328125 14.765625 62.554688 14.464844 61.753906 14.1875 C 59.089844 13.289062 58.328125 12.851562 57.800781 11.953125 C 57.027344 10.605469 57.722656 8.941406 59.457031 8.058594 C 60.570312 7.476562 61.164062 7.410156 65.179688 7.410156 L 69.011719 7.398438 Z M 86.808594 10.804688 C 87.230469 11.570312 87.898438 12.480469 88.632812 13.289062 C 89.261719 13.988281 89.773438 14.609375 89.773438 14.660156 C 89.773438 14.792969 89.105469 14.925781 88.476562 14.925781 C 87.871094 14.925781 87.019531 15.164062 86.742188 15.402344 C 86.492188 15.625 86.429688 15.574219 85.484375 14.132812 C 85.117188 13.59375 84.445312 12.734375 84 12.246094 C 83.382812 11.570312 83.210938 11.308594 83.332031 11.1875 C 83.566406 10.949219 85.890625 9.535156 86.019531 9.5625 C 86.074219 9.578125 86.429688 10.132812 86.808594 10.804688 Z M 25.855469 11.542969 C 25.855469 11.648438 25.644531 12.140625 25.398438 12.640625 L 24.9375 13.539062 L 24.9375 11.359375 L 25.398438 11.359375 C 25.710938 11.359375 25.855469 11.425781 25.855469 11.542969 Z M 69.167969 11.558594 C 69.167969 11.808594 69.023438 11.808594 68.695312 11.558594 C 68.460938 11.371094 68.460938 11.371094 68.8125 11.359375 C 69.039062 11.359375 69.167969 11.425781 69.167969 11.558594 Z M 58.273438 14.265625 C 58.484375 14.410156 58.851562 14.621094 59.089844 14.726562 C 59.507812 14.914062 59.496094 14.914062 58.433594 14.925781 C 57.828125 14.925781 57.355469 14.886719 57.382812 14.820312 C 57.671875 14.238281 57.800781 14 57.855469 14 C 57.882812 14 58.078125 14.121094 58.273438 14.265625 Z M 77.871094 16.484375 C 78.066406 16.722656 78.683594 17.582031 79.234375 18.386719 L 80.234375 19.878906 L 78.355469 19.917969 C 77.332031 19.933594 76.453125 19.917969 76.414062 19.890625 C 76.386719 19.851562 76.425781 19.65625 76.503906 19.457031 C 76.585938 19.246094 76.675781 18.464844 76.703125 17.699219 C 76.730469 16.933594 76.753906 16.074219 76.769531 15.785156 L 76.792969 15.257812 L 77.148438 15.664062 C 77.34375 15.890625 77.660156 16.261719 77.871094 16.484375 Z M 49.664062 19.007812 C 50.558594 19.363281 51.488281 19.695312 51.726562 19.746094 L 52.160156 19.839844 L 51.710938 20.078125 C 51.464844 20.210938 51.109375 20.472656 50.925781 20.671875 L 50.597656 21.015625 L 50.648438 24.632812 C 50.6875 28.148438 50.675781 28.253906 50.414062 28.519531 C 50.203125 28.730469 49.96875 28.796875 49.46875 28.796875 C 48.234375 28.796875 48.300781 28.992188 48.300781 25.136719 C 48.300781 21.476562 48.222656 20.921875 47.644531 20.433594 C 47.300781 20.144531 47.300781 20.128906 47.539062 19.746094 C 47.671875 19.523438 47.773438 19.164062 47.773438 18.941406 C 47.773438 18.597656 47.855469 18.359375 47.984375 18.359375 C 48 18.359375 48.757812 18.652344 49.664062 19.007812 Z M 34.78125 19.21875 C 34.859375 19.484375 35.136719 19.851562 35.371094 20.039062 L 35.816406 20.394531 L 35.488281 20.9375 C 35.253906 21.34375 35.175781 21.675781 35.175781 22.242188 L 35.175781 22.996094 L 33.835938 22.957031 L 32.484375 22.917969 L 32.445312 22.257812 C 32.40625 21.304688 32.328125 21.066406 31.945312 20.617188 C 31.734375 20.355469 31.394531 20.15625 31.027344 20.0625 L 30.464844 19.917969 L 30.648438 19.535156 C 30.75 19.335938 30.84375 19.074219 30.84375 18.953125 C 30.84375 18.78125 31.121094 18.757812 32.734375 18.757812 L 34.625 18.757812 Z M 69.300781 19.074219 C 69.300781 19.164062 69.457031 19.46875 69.640625 19.746094 C 69.902344 20.144531 69.929688 20.222656 69.734375 20.128906 C 69.601562 20.078125 68.972656 20 68.316406 19.945312 L 67.132812 19.878906 L 67.726562 19.640625 C 68.054688 19.507812 68.460938 19.285156 68.644531 19.152344 C 69.023438 18.847656 69.300781 18.824219 69.300781 19.074219 Z M 25.148438 20.433594 L 25.828125 20.511719 L 25.644531 20.949219 C 25.515625 21.265625 25.460938 21.980469 25.460938 23.417969 L 25.460938 25.453125 L 24.910156 25.175781 C 24.109375 24.78125 22.734375 24.832031 21.261719 25.320312 C 20.644531 25.519531 20.09375 25.679688 20.027344 25.691406 C 19.792969 25.691406 19.804688 25.359375 20.042969 25.28125 C 20.171875 25.230469 20.4375 25.042969 20.644531 24.859375 C 21 24.527344 21 24.503906 21 22.902344 C 21 21.359375 20.988281 21.265625 20.660156 20.882812 L 20.316406 20.472656 L 21.878906 20.460938 C 22.734375 20.460938 23.546875 20.40625 23.691406 20.339844 C 23.835938 20.277344 24.070312 20.25 24.214844 20.289062 C 24.359375 20.328125 24.78125 20.382812 25.148438 20.433594 Z M 71.925781 20.472656 L 72.910156 20.472656 L 71.792969 20.9375 C 71.191406 21.1875 70.679688 21.398438 70.652344 21.398438 C 70.625 21.398438 70.613281 21.292969 70.613281 21.148438 C 70.613281 21.015625 70.496094 20.75 70.351562 20.566406 L 70.085938 20.222656 L 70.507812 20.355469 C 70.742188 20.421875 71.386719 20.472656 71.925781 20.472656 Z M 88.804688 20.539062 C 90 20.539062 90 20.539062 89.8125 20.832031 C 89.710938 20.976562 89.589844 21.53125 89.550781 22.046875 L 89.472656 22.996094 L 88.148438 22.957031 L 86.820312 22.917969 L 86.757812 21.914062 C 86.71875 21.359375 86.613281 20.816406 86.53125 20.710938 C 86.285156 20.421875 86.492188 20.300781 87.085938 20.433594 C 87.375 20.488281 88.148438 20.539062 88.804688 20.539062 Z M 30.976562 21.53125 C 31.039062 21.636719 31.105469 22.269531 31.105469 22.917969 C 31.105469 23.671875 31.160156 24.171875 31.265625 24.277344 C 31.488281 24.503906 36.238281 24.503906 36.460938 24.277344 C 36.566406 24.171875 36.617188 23.671875 36.617188 22.902344 C 36.617188 21.226562 36.59375 21.238281 38.769531 21.28125 C 39.714844 21.292969 40.59375 21.359375 40.726562 21.425781 C 40.9375 21.53125 40.949219 21.941406 40.949219 27.117188 C 40.949219 30.183594 40.898438 32.757812 40.84375 32.851562 C 40.738281 33.023438 37.011719 33.128906 36.75 32.957031 C 36.671875 32.902344 36.617188 31.925781 36.617188 30.195312 C 36.617188 28.292969 36.578125 27.488281 36.460938 27.367188 C 36.226562 27.128906 31.449219 27.144531 31.25 27.382812 C 31.160156 27.5 31.09375 28.542969 31.078125 30.261719 L 31.039062 32.957031 L 26.839844 32.957031 L 26.800781 27.277344 C 26.773438 21.980469 26.789062 21.582031 27 21.425781 C 27.351562 21.160156 30.804688 21.253906 30.976562 21.53125 Z M 56.253906 21.4375 C 56.320312 21.492188 56.359375 23.433594 56.371094 25.742188 L 56.371094 29.929688 L 55.976562 30.589844 C 54.902344 32.347656 52.027344 33.300781 48.429688 33.101562 C 44.246094 32.875 42.339844 31.648438 41.855469 28.847656 C 41.671875 27.804688 41.789062 22.296875 42 21.726562 L 42.132812 21.398438 L 46.84375 21.398438 L 46.882812 25.058594 C 46.921875 28.464844 46.933594 28.769531 47.183594 29.191406 C 47.578125 29.863281 48.285156 30.167969 49.414062 30.167969 C 50.542969 30.15625 51.292969 29.8125 51.726562 29.097656 C 52.039062 28.597656 52.039062 28.582031 52 25.042969 C 51.960938 22.21875 51.988281 21.464844 52.132812 21.371094 C 52.34375 21.238281 56.109375 21.292969 56.253906 21.4375 Z M 69.128906 21.371094 C 69.351562 21.515625 69.484375 22.5625 69.378906 23.300781 L 69.285156 23.90625 L 67.855469 23.90625 C 67.070312 23.90625 66.28125 23.960938 66.097656 24.039062 L 65.757812 24.171875 L 65.757812 32.890625 L 65.414062 33.023438 C 64.96875 33.195312 61.476562 33.195312 61.148438 33.023438 C 60.914062 32.890625 60.898438 32.691406 60.898438 28.53125 C 60.898438 25.203125 60.859375 24.160156 60.742188 24.078125 C 60.652344 24.027344 59.835938 23.949219 58.929688 23.90625 L 57.289062 23.84375 L 57.25 22.667969 C 57.226562 21.808594 57.265625 21.449219 57.382812 21.371094 C 57.605469 21.238281 68.917969 21.238281 69.128906 21.371094 Z M 80.0625 21.398438 C 80.257812 21.53125 80.417969 23.117188 80.273438 23.683594 C 80.195312 24 80.167969 24 78.144531 24.066406 C 76.136719 24.144531 76.085938 24.144531 75.234375 24.582031 C 73.839844 25.308594 73.183594 26.574219 73.488281 27.921875 C 73.671875 28.703125 74.011719 29.085938 74.945312 29.546875 C 75.96875 30.050781 77.042969 30.25 78.828125 30.25 C 80.378906 30.25 80.324219 30.195312 80.324219 31.582031 C 80.324219 33.074219 80.402344 33.023438 77.921875 33.023438 C 75.457031 33.023438 74.351562 32.875 72.960938 32.414062 C 70.519531 31.609375 68.945312 30.117188 68.433594 28.148438 C 68.054688 26.640625 68.550781 25.1875 69.902344 23.828125 C 71.136719 22.574219 72.988281 21.753906 75.285156 21.410156 C 76.347656 21.253906 79.828125 21.238281 80.0625 21.398438 Z M 85.195312 21.398438 C 85.417969 21.53125 85.445312 21.6875 85.445312 22.851562 C 85.445312 24.011719 85.46875 24.171875 85.691406 24.304688 C 86.035156 24.476562 90.367188 24.476562 90.707031 24.304688 C 90.929688 24.171875 90.957031 24.011719 90.957031 22.839844 C 90.957031 21.53125 90.957031 21.515625 91.324219 21.386719 C 91.757812 21.214844 94.972656 21.292969 95.15625 21.476562 C 95.25 21.570312 95.273438 23.734375 95.261719 27.289062 L 95.222656 32.957031 L 91.023438 32.957031 L 90.984375 30.261719 C 90.96875 28.542969 90.902344 27.5 90.8125 27.382812 C 90.613281 27.144531 85.835938 27.128906 85.601562 27.367188 C 85.484375 27.488281 85.445312 28.292969 85.445312 30.195312 C 85.445312 32.425781 85.417969 32.875 85.246094 32.941406 C 84.917969 33.0625 81.363281 33.0625 81.230469 32.929688 C 81.164062 32.863281 81.125 30.40625 81.140625 27.128906 L 81.179688 21.464844 L 81.769531 21.386719 C 82.78125 21.253906 84.917969 21.265625 85.195312 21.398438 Z M 19.476562 21.703125 C 19.660156 21.835938 19.6875 22.046875 19.660156 22.917969 L 19.621094 23.972656 L 18.308594 24 C 16.707031 24.054688 16.457031 24.105469 16.273438 24.4375 C 15.933594 25.082031 16.5625 25.492188 17.875 25.492188 C 18.609375 25.492188 18.675781 25.613281 18.609375 26.945312 L 18.570312 27.804688 L 17.195312 27.882812 C 15.738281 27.964844 15.371094 28.082031 15.042969 28.558594 C 14.226562 29.71875 15.828125 30.933594 17.640625 30.527344 C 18.585938 30.3125 18.953125 29.945312 19.242188 28.914062 C 19.6875 27.328125 21.222656 26.363281 23.363281 26.351562 L 24.347656 26.351562 L 24.386719 27.5 L 24.425781 28.636719 L 23.703125 28.847656 C 23.007812 29.058594 22.445312 29.535156 22.445312 29.917969 C 22.445312 30.195312 22.902344 30.511719 23.636719 30.75 L 24.347656 30.972656 L 24.386719 31.9375 C 24.414062 32.546875 24.359375 32.980469 24.269531 33.101562 C 24.046875 33.378906 22.707031 33.339844 21.367188 33.007812 L 20.226562 32.71875 L 19.175781 33.074219 C 18.242188 33.378906 17.914062 33.417969 16.378906 33.417969 C 13.464844 33.417969 11.96875 32.929688 10.789062 31.636719 C 9.199219 29.890625 9.738281 27.804688 12.101562 26.601562 L 12.757812 26.257812 L 12.363281 25.847656 C 11.890625 25.335938 11.550781 24.6875 11.550781 24.277344 C 11.550781 23.457031 12.652344 22.480469 14.03125 22.058594 C 15.5 21.609375 19.03125 21.371094 19.476562 21.703125 Z M 79.667969 27.238281 L 79.667969 28.96875 L 78.304688 28.886719 C 76.875 28.796875 75.480469 28.4375 75.0625 28.054688 C 74.5625 27.605469 74.839844 26.429688 75.546875 25.957031 C 76.125 25.585938 76.492188 25.519531 78.132812 25.507812 L 79.667969 25.492188 Z M 25.332031 29.851562 C 25.332031 29.917969 25.304688 29.984375 25.277344 29.984375 C 25.238281 29.984375 25.171875 29.917969 25.132812 29.851562 C 25.09375 29.773438 25.121094 29.71875 25.1875 29.71875 C 25.265625 29.71875 25.332031 29.773438 25.332031 29.851562 Z M 25.332031 29.851562 "/>
      <path d="M 31.722656 12.667969 C 31.316406 13.445312 30.976562 14.132812 30.976562 14.1875 C 30.976562 14.226562 31.75 14.265625 32.679688 14.265625 C 33.625 14.265625 34.386719 14.226562 34.375 14.160156 C 34.347656 13.777344 32.824219 11.226562 32.628906 11.226562 C 32.550781 11.226562 32.128906 11.875 31.722656 12.667969 Z M 31.722656 12.667969 "/>
      <path d="M 46.554688 9.960938 C 46.5 10.089844 46.460938 10.804688 46.460938 11.542969 L 46.460938 12.890625 L 46.960938 13.144531 C 47.511719 13.40625 49.246094 13.566406 50.203125 13.421875 C 51.777344 13.167969 52.355469 11.4375 51.136719 10.59375 C 50.453125 10.132812 49.574219 9.90625 48.023438 9.8125 C 46.789062 9.75 46.632812 9.761719 46.554688 9.960938 Z M 49.925781 11.542969 C 50.625 11.835938 50.386719 12.058594 49.3125 12.125 C 48.207031 12.191406 47.789062 12.019531 47.878906 11.542969 C 47.945312 11.199219 47.957031 11.199219 48.679688 11.265625 C 49.085938 11.292969 49.652344 11.425781 49.925781 11.542969 Z M 49.925781 11.542969 "/>
    </g>
  <symbol>
  <symbol viewBox="0 0 20 19" id="phone-icon">
    <path d="M10.0408 0C6.46361 0 2.90684 0.608386 1.58197 1.8155C0.624506 2.9164 0.0701613 4.28212 0.00231714 5.70724C-0.000772379 5.76193 -0.000772379 5.81673 0.00231714 5.87141C0.00231714 6.08143 0.0903626 6.28284 0.247084 6.43135C0.403806 6.57985 0.616367 6.66328 0.838005 6.66328L4.07884 6.4122H4.16037C4.26878 6.41094 4.37587 6.38946 4.47551 6.34898C4.57516 6.3085 4.66541 6.24982 4.74112 6.17628C4.81683 6.10275 4.87651 6.0158 4.91676 5.92041C4.95701 5.82502 4.97703 5.72305 4.97568 5.62033V4.04625C4.97433 3.93131 4.99706 3.81725 5.04255 3.71069C5.08804 3.60412 5.15539 3.50717 5.2407 3.42544C5.326 3.34371 5.42757 3.27882 5.53952 3.23454C5.65148 3.19026 5.77159 3.16746 5.8929 3.16747H14.046C14.2919 3.16747 14.5278 3.26006 14.7017 3.42486C14.8757 3.58966 14.9734 3.81318 14.9734 4.04625V5.60102C14.9733 5.80773 15.0585 6.00627 15.2109 6.15423C15.3632 6.30219 15.5706 6.38784 15.7887 6.39288H15.8804L19.162 6.64396C19.2717 6.64396 19.3804 6.62348 19.4818 6.58369C19.5832 6.54389 19.6753 6.48556 19.7529 6.41203C19.8305 6.3385 19.8921 6.2512 19.9341 6.15513C19.9761 6.05906 19.9977 5.95609 19.9977 5.8521C20.0008 5.79741 20.0008 5.74261 19.9977 5.68793C19.9242 4.27608 19.378 2.92311 18.4384 1.82516C17.1951 0.608386 13.6179 0 10.0408 0ZM10.0408 10.3039C9.7102 10.3039 9.38705 10.3968 9.1122 10.5708C8.83734 10.7449 8.62312 10.9922 8.49662 11.2816C8.37011 11.571 8.33701 11.8894 8.4015 12.1966C8.46599 12.5039 8.62518 12.7861 8.85892 13.0075C9.09267 13.229 9.39048 13.3799 9.7147 13.441C10.0389 13.5021 10.375 13.4707 10.6804 13.3509C10.9858 13.231 11.2468 13.028 11.4305 12.7676C11.6141 12.5071 11.7121 12.2009 11.7121 11.8877C11.7135 11.6793 11.6712 11.4728 11.5877 11.2801C11.5042 11.0874 11.3811 10.9123 11.2256 10.7649C11.0702 10.6176 10.8854 10.501 10.682 10.4219C10.4786 10.3427 10.2606 10.3027 10.0408 10.3039ZM8.78723 6.75985V5.79416C8.78723 5.53804 8.67986 5.29241 8.48874 5.11131C8.29761 4.9302 8.03839 4.82846 7.7681 4.82846C7.49781 4.82846 7.23859 4.9302 7.04747 5.11131C6.85634 5.29241 6.74897 5.53804 6.74897 5.79416V6.75985L1.02145 12.4478C0.818967 12.6306 0.658375 12.8511 0.54967 13.0953C0.440965 13.3395 0.386473 13.6023 0.389587 13.8673V15.4511C0.389579 15.872 0.565344 16.2758 0.878498 16.5744C1.19165 16.8729 1.61675 17.0419 2.06096 17.0445H2.47881V18.0102C2.47881 18.1402 2.50583 18.2689 2.55832 18.389C2.61082 18.5091 2.68777 18.6182 2.78477 18.7101C2.88177 18.802 2.99692 18.8749 3.12366 18.9247C3.2504 18.9744 3.38624 19 3.52342 19C3.6606 19 3.79643 18.9744 3.92317 18.9247C4.04991 18.8749 4.16507 18.802 4.26207 18.7101C4.35907 18.6182 4.43601 18.5091 4.48851 18.389C4.54101 18.2689 4.56803 18.1402 4.56803 18.0102V17.0445H15.4727V18.0102C15.4727 18.2727 15.5828 18.5245 15.7787 18.7101C15.9746 18.8957 16.2403 19 16.5173 19C16.7944 19 17.0601 18.8957 17.256 18.7101C17.4519 18.5245 17.562 18.2727 17.562 18.0102V17.0445H17.9798C18.2001 17.0445 18.4183 17.0032 18.6218 16.923C18.8252 16.8428 19.0099 16.7253 19.1653 16.5772C19.3206 16.4291 19.4435 16.2534 19.5269 16.0601C19.6103 15.8669 19.6525 15.6599 19.6512 15.4511V13.8673C19.6556 13.603 19.6027 13.3406 19.4958 13.0964C19.3888 12.8523 19.2301 12.6315 19.0295 12.4478L13.3835 6.75985V5.79416C13.3835 5.53163 13.2735 5.27987 13.0776 5.09424C12.8817 4.90861 12.616 4.80432 12.3389 4.80432C12.0619 4.80432 11.7962 4.90861 11.6003 5.09424C11.4044 5.27987 11.2943 5.53163 11.2943 5.79416V6.75985H8.78723ZM10.0408 8.69123C10.7019 8.69123 11.3482 8.877 11.8979 9.22505C12.4476 9.57309 12.8761 10.0678 13.1291 10.6466C13.3821 11.2253 13.4483 11.8622 13.3193 12.4766C13.1903 13.0911 12.8719 13.6555 12.4044 14.0984C11.937 14.5414 11.3413 14.8431 10.6929 14.9653C10.0445 15.0875 9.37236 15.0248 8.76155 14.7851C8.15074 14.5453 7.62867 14.1393 7.26137 13.6185C6.89406 13.0976 6.69801 12.4852 6.69801 11.8587C6.69801 11.0186 7.05019 10.213 7.67708 9.61896C8.30397 9.02495 9.15421 8.69123 10.0408 8.69123Z"/>
  </symbol>
  <symbol viewBox="0 0 18 13" id="email-icon">
    <path d="M14.9101 1.68071C16.1101 0.752143 15.8201 0 14.2601 0H3.73007C2.17007 0 1.88007 0.761428 3.07007 1.68071L6.82007 4.57786C7.44102 5.02891 8.2067 5.27397 8.99507 5.27397C9.78344 5.27397 10.5491 5.02891 11.1701 4.57786L14.9101 1.68071Z"/>
    <path d="M11.9101 6.5L9.70007 8.24571C9.61906 8.29331 9.53164 8.33078 9.44007 8.35714L9.34007 8.40357C9.23142 8.44582 9.11701 8.47395 9.00007 8.48714L8.67007 8.43143L8.55007 8.35714C8.46475 8.3229 8.38417 8.27925 8.31007 8.22714L6.08007 6.5L2.18007 3.52857C1.00007 2.6 7.0672e-05 3.02714 7.0672e-05 4.47571V10.335C-0.002565 10.6825 0.0685454 11.0272 0.209341 11.3492C0.350138 11.6712 0.557862 11.9643 0.820654 12.2118C1.08345 12.4592 1.39616 12.6562 1.74093 12.7915C2.08571 12.9267 2.4558 12.9976 2.83007 13H15.1501C15.526 13 15.8983 12.9309 16.2454 12.7968C16.5924 12.6626 16.9075 12.466 17.1724 12.2183C17.4373 11.9706 17.6469 11.6767 17.7889 11.3534C17.9309 11.0302 18.0027 10.6841 18.0001 10.335V4.47571C18.0001 3.02714 17.0001 2.61857 15.8201 3.54714L11.9101 6.5Z"/>
  </symbol>
  <symbol viewBox="0 0 44 44" id="crop-icon">
    <path d="M32 28H36V12C36 10.9391 35.5786 9.92172 34.8284 9.17157C34.0783 8.42143 33.0609 8 32 8H16V12H32V28ZM12 32V0H8V8H0V12H8V32C8 33.0609 8.42143 34.0783 9.17157 34.8284C9.92172 35.5786 10.9391 36 12 36H32V44H36V36H44V32H12Z" />
  </symbol>
  <symbol viewBox="0 0 48 43" id="fill-icon">
    <path d="M33.12 17.88L15.24 0L12.41 2.83L17.17 7.59L6.88 17.88C6.3182 18.4425 6.00264 19.205 6.00264 20C6.00264 20.795 6.3182 21.5575 6.88 22.12L17.88 33.12C18.4425 33.6818 19.205 33.9974 20 33.9974C20.795 33.9974 21.5575 33.6818 22.12 33.12L33.12 22.12C33.6818 21.5575 33.9974 20.795 33.9974 20C33.9974 19.205 33.6818 18.4425 33.12 17.88ZM10.41 20L20 10.42L29.59 20H10.41ZM38 23C38 23 34 27.33 34 30C34 31.0609 34.4214 32.0783 35.1716 32.8284C35.9217 33.5786 36.9391 34 38 34C39.0609 34 40.0783 33.5786 40.8284 32.8284C41.5786 32.0783 42 31.0609 42 30C42 27.33 38 23 38 23Z"/>
    <path d="M48 40H0V43H48V40Z"/>
  </symbol>
  <symbol viewBox="0 0 32 32" id="contrast-icon">
    <path d="M16 4C18.3734 4 20.6935 4.70379 22.6669 6.02236C24.6402 7.34094 26.1783 9.21509 27.0866 11.4078C27.9948 13.6005 28.2325 16.0133 27.7694 18.3411C27.3064 20.6689 26.1635 22.8071 24.4853 24.4853C22.8071 26.1635 20.6689 27.3064 18.3411 27.7694C16.0133 28.2324 13.6005 27.9948 11.4078 27.0866C9.21509 26.1783 7.34095 24.6402 6.02237 22.6668C4.70379 20.6935 4.00001 18.3734 4.00001 16C4.00001 12.8174 5.26429 9.76515 7.51473 7.51472C9.76516 5.26428 12.8174 4 16 4ZM16 0C12.8355 0 9.74207 0.938384 7.11088 2.69649C4.4797 4.45459 2.42894 6.95345 1.21793 9.87706C0.0069325 12.8007 -0.309921 16.0177 0.307443 19.1214C0.924806 22.2251 2.44866 25.0761 4.6863 27.3137C6.92394 29.5513 9.77487 31.0752 12.8786 31.6926C15.9823 32.3099 19.1993 31.9931 22.1229 30.7821C25.0466 29.5711 27.5454 27.5203 29.3035 24.8891C31.0616 22.2579 32 19.1645 32 16C32 11.7565 30.3143 7.68687 27.3137 4.68629C24.3131 1.68571 20.2435 0 16 0Z" />
    <path d="M16 24.29C18.1536 24.1422 20.1708 23.1824 21.644 21.6046C23.1172 20.0268 23.9366 17.9486 23.9366 15.79C23.9366 13.6314 23.1172 11.5532 21.644 9.97538C20.1708 8.39759 18.1536 7.43782 16 7.29" />
  </symbol>
</svg>
